# xmcd CD database file
#
# Track frame offsets:
#	150
#	32916
#	62545
#	96048
#	132358
#	182841
#	206565
#	242460
#	269339
#	294519
#
# Disc length: 4646 seconds
#
# Revision: 0
# Processed by: cddbd v1.4PL0 Copyright (c) Steve Scherf et al.
# Submitted via: NeoAudio 9.9.9
#
DISCID=8e12240a
DTITLE=Gov't Mule - Portsmouth, NH  3/3/02 (1st Set)
DYEAR=2002
DGENRE=Blues
TTITLE0=Goin' Out West
TTITLE1=It Hurts Me Too
TTITLE2=Rocking Horse
TTITLE3=Beautifully Broken
TTITLE4=Thorozine Shuffle
TTITLE5=Life On The Outside
TTITLE6=Banks Of The Deep End
TTITLE7=King's Highway
TTITLE8=Is It My Body?
TTITLE9=Dreams
EXTD=YEAR: 2002
EXTT0=
EXTT1=
EXTT2=
EXTT3=
EXTT4=
EXTT5=
EXTT6=
EXTT7=
EXTT8=
EXTT9=
PLAYORDER=
